<svg id="Layer_1" data-name="Layer 1" xmlns="http://www.w3.org/2000/svg" viewBox="0 0 173.05 138.3"><defs><style>.cls-1{fill:none;}</style></defs><title>txt</title><rect class="cls-1" width="173.05" height="138.3"/><path d="M27.72,36.22H.71V26.75H65.48v9.47H38.34v75.91H27.72Z"/><path d="M97.09,86.78,78.53,112.13h-11L91.2,80.38,68.8,50.3H79.94L97.09,73.85,114.24,50.3h11.14L103,80.38l23.81,31.75H115.65Z"/><path d="M146.88,99.2V58.75H136.64V50.3h10.24V33.4h9.6V50.3H169v8.45H156.48v38.4c0,4.61,2.05,7.94,6.27,7.94a9.26,9.26,0,0,0,6.53-2.57l2.82,7.17c-2.43,2.31-5.89,4-11.52,4C151.49,113.66,146.88,108.41,146.88,99.2Z"/></svg>