<svg id="Layer_1" data-name="Layer 1" xmlns="http://www.w3.org/2000/svg" viewBox="0 0 182.28 168.83"><defs><style>.cls-1{fill:none;stroke:#000;stroke-miterlimit:10;stroke-width:10px;}</style></defs><title>magtofit</title><rect class="cls-1" x="5" y="5" width="172.28" height="158.83"/><line class="cls-1" x1="106.79" y1="84.42" x2="152.3" y2="84.42"/><polygon points="132.38 101.37 149.34 84.42 132.38 67.46 146.78 67.46 163.73 84.42 146.78 101.37 132.38 101.37"/><line class="cls-1" x1="74.8" y1="84.52" x2="29.29" y2="84.52"/><polygon points="49.21 67.57 32.25 84.52 49.21 101.48 34.82 101.48 17.86 84.52 34.82 67.57 49.21 67.57"/><line class="cls-1" x1="91.05" y1="75.02" x2="91.05" y2="29.51"/><polygon points="108 49.43 91.05 32.47 74.09 49.43 74.09 35.04 91.05 18.08 108 35.04 108 49.43"/><line class="cls-1" x1="91.05" y1="94.03" x2="91.05" y2="139.54"/><polygon points="74.09 119.62 91.05 136.58 108 119.62 108 134.01 91.05 150.97 74.09 134.01 74.09 119.62"/></svg>