<?xml version="1.0" encoding="utf-8"?>
<!-- Generator: Adobe Illustrator 23.0.1, SVG Export Plug-In . SVG Version: 6.00 Build 0)  -->
<svg version="1.1" id="Layer_1" xmlns="http://www.w3.org/2000/svg" xmlns:xlink="http://www.w3.org/1999/xlink" x="0px" y="0px"
	 viewBox="0 0 173.05 138.3" style="enable-background:new 0 0 173.05 138.3;" xml:space="preserve">
<g>
	<path d="M12.42,22.72h41.22c2.73,0,4.1,1.41,4.1,4.22c0,2.73-1.37,4.1-4.1,4.1H37.12v70.15c0,2.73-1.37,4.1-4.1,4.1
		s-4.1-1.37-4.1-4.1V31.04H12.42c-2.82,0-4.22-1.37-4.22-4.1C8.19,24.12,9.6,22.72,12.42,22.72z"/>
	<path d="M114.69,98.88c0.51,0.68,0.77,1.45,0.77,2.3c0,2.73-1.41,4.1-4.22,4.1c-1.45,0-2.56-0.6-3.33-1.79L94.85,83.9l-13.06,19.58
		c-0.85,1.19-2.01,1.79-3.46,1.79c-1.2,0-2.2-0.41-3.01-1.22c-0.81-0.81-1.22-1.77-1.22-2.88c0-0.85,0.26-1.62,0.77-2.3l14.98-22.53
		l-14.98-22.4c-0.51-0.68-0.77-1.45-0.77-2.3c0-2.73,1.41-4.1,4.22-4.1c1.45,0,2.6,0.6,3.46,1.79l13.06,19.58l13.06-19.58
		c0.77-1.19,1.88-1.79,3.33-1.79c2.82,0,4.22,1.37,4.22,4.1c0,0.85-0.26,1.62-0.77,2.3l-14.85,22.4L114.69,98.88z"/>
	<path d="M136.06,55.74c-2.82,0-4.22-1.37-4.22-4.1c0-2.73,1.41-4.1,4.22-4.1h4.1V35.52c0-2.82,1.37-4.22,4.1-4.22
		c2.73,0,4.1,1.41,4.1,4.22v12.03h12.42c2.73,0,4.1,1.37,4.1,4.1c0,2.73-1.37,4.1-4.1,4.1h-12.42v8.32h0.13v24.71
		c0,2.22,0.81,4.16,2.43,5.82c1.62,1.66,3.54,2.5,5.76,2.5h2.82c2.73,0,4.1,1.37,4.1,4.1c0,2.73-1.19,4.1-3.58,4.1h-3.33
		c-4.78,0-8.73-1.56-11.84-4.67c-3.11-3.11-4.67-7.06-4.67-11.84V55.74H136.06z"/>
</g>
</svg>
